<svg data-v-423bf9ae="" xmlns="http://www.w3.org/2000/svg" viewBox="0 0 6765.064171580308 7947" class="iconAbove"><!----><!----><!----><g data-v-423bf9ae="" id="7648ddca-489a-4964-b149-bc2185dfb7cd" fill="white" transform="matrix(5.830903811703725,0,0,5.830903811703725,3176.555351567656,7873.424633653461)"><path d="M1.18 12.29L1.18 2.69L2.73 2.69L2.73 12.29L1.18 12.29ZM4.84 12.29L4.84 4.93L6.01 4.93L6.15 5.91L6.24 5.91L6.24 5.91Q6.64 5.35 7.26 5.05L7.26 5.05L7.26 5.05Q7.88 4.76 8.67 4.76L8.67 4.76L8.67 4.76Q11.00 4.76 11.00 7.29L11.00 7.29L11.00 12.29L9.56 12.29L9.56 7.48L9.56 7.48Q9.56 6.65 9.19 6.32L9.19 6.32L9.19 6.32Q8.82 5.99 8.11 5.99L8.11 5.99L8.11 5.99Q7.62 5.99 7.20 6.24L7.20 6.24L7.20 6.24Q6.78 6.48 6.53 6.93L6.53 6.93L6.53 6.93Q6.29 7.38 6.29 7.97L6.29 7.97L6.29 12.29L4.84 12.29ZM12.87 12.29L12.87 2.17L14.31 2.17L14.31 5.77L14.41 5.77L14.41 5.77Q15.19 4.76 16.69 4.76L16.69 4.76L16.69 4.76Q19.03 4.76 19.03 7.29L19.03 7.29L19.03 12.29L17.58 12.29L17.58 7.48L17.58 7.48Q17.58 6.65 17.21 6.32L17.21 6.32L17.21 6.32Q16.84 5.99 16.13 5.99L16.13 5.99L16.13 5.99Q15.64 5.99 15.22 6.24L15.22 6.24L15.22 6.24Q14.80 6.48 14.55 6.93L14.55 6.93L14.55 6.93Q14.31 7.38 14.31 7.97L14.31 7.97L14.31 12.29L12.87 12.29ZM23.98 12.46L23.98 12.46Q22.20 12.46 21.34 11.52L21.34 11.52L21.34 11.52Q20.47 10.58 20.47 8.61L20.47 8.61L20.47 8.61Q20.47 6.64 21.34 5.70L21.34 5.70L21.34 5.70Q22.20 4.76 23.98 4.76L23.98 4.76L23.98 4.76Q25.59 4.76 26.39 5.63L26.39 5.63L26.39 5.63Q27.19 6.51 27.19 8.41L27.19 8.41L27.19 8.97L21.95 8.97L21.95 8.97Q22.01 10.16 22.49 10.73L22.49 10.73L22.49 10.73Q22.97 11.30 24.00 11.30L24.00 11.30L24.00 11.30Q24.79 11.30 25.28 10.92L25.28 10.92L25.28 10.92Q25.77 10.54 25.77 9.76L25.77 9.76L27.19 9.76L27.19 9.76Q27.19 11.07 26.30 11.77L26.30 11.77L26.30 11.77Q25.41 12.46 23.98 12.46L23.98 12.46ZM21.98 7.88L25.69 7.88L25.69 7.88Q25.69 5.92 23.98 5.92L23.98 5.92L23.98 5.92Q23.03 5.92 22.55 6.39L22.55 6.39L22.55 6.39Q22.08 6.86 21.98 7.88L21.98 7.88ZM28.67 12.29L28.67 4.93L29.83 4.93L29.97 6.06L30.06 6.06L30.06 6.06Q30.56 4.76 31.75 4.76L31.75 4.76L31.75 4.76Q32.00 4.76 32.19 4.81L32.19 4.81L32.19 4.81Q32.38 4.86 32.44 4.87L32.44 4.87L32.44 6.24L31.92 6.24L31.92 6.24Q31.09 6.24 30.60 6.72L30.60 6.72L30.60 6.72Q30.11 7.20 30.11 8.18L30.11 8.18L30.11 12.29L28.67 12.29ZM33.57 3.65L33.57 2.17L35.01 2.17L35.01 3.65L33.57 3.65ZM33.57 12.29L33.57 4.93L35.01 4.93L35.01 12.29L33.57 12.29ZM39.80 12.46L39.80 12.46Q38.09 12.46 37.28 11.52L37.28 11.52L37.28 11.52Q36.47 10.58 36.47 8.61L36.47 8.61L36.47 8.61Q36.47 6.64 37.29 5.70L37.29 5.70L37.29 5.70Q38.11 4.76 39.80 4.76L39.80 4.76L39.80 4.76Q41.30 4.76 42.05 5.50L42.05 5.50L42.05 5.50Q42.80 6.23 42.80 7.67L42.80 7.67L41.34 7.67L41.34 7.67Q41.34 6.78 40.98 6.36L40.98 6.36L40.98 6.36Q40.63 5.94 39.79 5.94L39.79 5.94L39.79 5.94Q38.84 5.94 38.39 6.57L38.39 6.57L38.39 6.57Q37.95 7.20 37.95 8.58L37.95 8.58L37.95 8.68L37.95 8.68Q37.95 10.05 38.39 10.67L38.39 10.67L38.39 10.67Q38.84 11.28 39.82 11.28L39.82 11.28L39.82 11.28Q40.64 11.28 41.03 10.84L41.03 10.84L41.03 10.84Q41.41 10.40 41.41 9.55L41.41 9.55L42.80 9.55L42.80 9.55Q42.80 10.86 42.04 11.66L42.04 11.66L42.04 11.66Q41.29 12.46 39.80 12.46L39.80 12.46ZM44.16 12.29L44.16 2.17L45.60 2.17L45.60 5.77L45.70 5.77L45.70 5.77Q46.48 4.76 47.98 4.76L47.98 4.76L47.98 4.76Q50.32 4.76 50.32 7.29L50.32 7.29L50.32 12.29L48.87 12.29L48.87 7.48L48.87 7.48Q48.87 6.65 48.50 6.32L48.50 6.32L48.50 6.32Q48.13 5.99 47.42 5.99L47.42 5.99L47.42 5.99Q46.93 5.99 46.51 6.24L46.51 6.24L46.51 6.24Q46.09 6.48 45.84 6.93L45.84 6.93L45.84 6.93Q45.60 7.38 45.60 7.97L45.60 7.97L45.60 12.29L44.16 12.29ZM54.08 12.46L54.08 12.46Q53.17 12.46 52.44 12.01L52.44 12.01L52.44 12.01Q51.70 11.56 51.70 10.39L51.70 10.39L51.70 10.39Q51.70 8.97 52.93 8.43L52.93 8.43L52.93 8.43Q54.17 7.88 56.46 7.88L56.46 7.88L56.46 7.15L56.46 7.15Q56.46 6.55 56.15 6.24L56.15 6.24L56.15 6.24Q55.83 5.92 54.98 5.92L54.98 5.92L54.98 5.92Q54.15 5.92 53.81 6.22L53.81 6.22L53.81 6.22Q53.47 6.51 53.47 6.93L53.47 6.93L53.47 7.11L52.07 7.11L52.07 7.11Q52.05 7.03 52.05 6.80L52.05 6.80L52.05 6.80Q52.05 5.84 52.86 5.30L52.86 5.30L52.86 5.30Q53.68 4.76 55.03 4.76L55.03 4.76L55.03 4.76Q56.46 4.76 57.18 5.35L57.18 5.35L57.18 5.35Q57.90 5.94 57.90 7.01L57.90 7.01L57.90 10.78L57.90 10.78Q57.90 11.03 58.04 11.15L58.04 11.15L58.04 11.15Q58.18 11.27 58.39 11.27L58.39 11.27L58.90 11.27L58.90 12.24L58.90 12.24Q58.53 12.42 57.90 12.42L57.90 12.42L57.90 12.42Q57.40 12.42 57.06 12.14L57.06 12.14L57.06 12.14Q56.71 11.87 56.60 11.40L56.60 11.40L56.50 11.40L56.50 11.40Q56.11 11.90 55.50 12.18L55.50 12.18L55.50 12.18Q54.89 12.46 54.08 12.46L54.08 12.46ZM54.50 11.28L54.50 11.28Q55.33 11.28 55.89 10.79L55.89 10.79L55.89 10.79Q56.46 10.29 56.46 9.42L56.46 9.42L56.46 8.97L56.46 8.97Q54.87 8.97 54.03 9.25L54.03 9.25L54.03 9.25Q53.19 9.52 53.19 10.28L53.19 10.28L53.19 10.28Q53.19 10.79 53.51 11.04L53.51 11.04L53.51 11.04Q53.84 11.28 54.50 11.28L54.50 11.28ZM59.96 3.65L59.96 2.17L61.40 2.17L61.40 3.65L59.96 3.65ZM59.96 12.29L59.96 4.93L61.40 4.93L61.40 12.29L59.96 12.29ZM63.31 12.29L63.31 4.93L64.47 4.93L64.61 5.91L64.71 5.91L64.71 5.91Q65.10 5.35 65.72 5.05L65.72 5.05L65.72 5.05Q66.35 4.76 67.13 4.76L67.13 4.76L67.13 4.76Q69.47 4.76 69.47 7.29L69.47 7.29L69.47 12.29L68.03 12.29L68.03 7.48L68.03 7.48Q68.03 6.65 67.66 6.32L67.66 6.32L67.66 6.32Q67.28 5.99 66.57 5.99L66.57 5.99L66.57 5.99Q66.08 5.99 65.66 6.24L65.66 6.24L65.66 6.24Q65.24 6.48 64.99 6.93L64.99 6.93L64.99 6.93Q64.75 7.38 64.75 7.97L64.75 7.97L64.75 12.29L63.31 12.29Z"></path></g><!----><g data-v-423bf9ae="" id="a62724b2-70d6-4ef8-9138-3cf6f0bb521a" transform="matrix(9.353001573350694,0,0,9.353001573350694,-553.8960419992654,-1628.886557785504)" stroke="none" fill="white"><path d="M779.3 464.9l-63.8 175-59.3 212.3c-36.3 120.9-96.7 164-207.8 163.8-95.6-.1-155-39.5-211.3-128.4l-171.6-290c-12.6-25.2-5.3-49.8 15.7-61.2 21-11.3 46.7-8.2 64.8 17.2 5.7 8 33.5 44.8 64.2 86.3l.1.1c13 18.7 30.8 42.2 52.8 71.8l65.9 95.6 55 86.3c5.1 9.2 15.5 13.7 24 8.5 8.2-5 10.8-12.9 5.2-24.1L377 802c-2.1-4.3 3.5-8.1 6.7-4.5l86.8 112.7c7.4 8.3 22.5 13.2 31.4 5.3 8.9-7.9 7.6-21.5.5-30.9l-73.2-103.8c-2.7-3.5 2.3-7.8 5.4-4.7l102.1 107.1c7.4 8.3 22.2 11.9 31.1 4 8.9-7.9 7.6-21.8-.1-30.7L459 737.8c-2.6-3 1.2-7.3 4.5-5l92.2 70.3c11.3 7.9 25.4 9.2 33 0 8.5-10.2 1.5-24.6-8-32.3l-132.9-112c-21.2-16.6-13.5-34.9 12.8-34.2 33.5 1 71.1 1.5 77.5 1.7 15.1.6 23.9-8.3 25.8-19.7 1.9-11.4-5.4-21.5-18.8-24.2l-162-20.5c-19.9-1.9-43-4.3-66.5-5.7l9.2-261.8c.4-25.3 16.5-48.1 43.9-47.3 24.6.7 42.7 21.2 44.1 49.6l3.9 220.8c.3 8.3 12.2 9.2 13.8 1L481.4 210c4.7-23.8 27.7-39.5 51.8-35 24.2 4.5 39.9 28.7 35.7 51.3l-39.3 280.4c-1.2 9.1 12 11.7 14.4 2.9l66.8-229.2c6.3-23.5 27.9-38.2 52-33.7 24.2 4.5 38.9 31 34.7 53.5l-67.2 263.1c-1.7 9.6 11.6 14 15.9 5.2l66.2-130c11.2-23.3 29.3-29 47.8-22 18.9 7.3 27.7 28.4 19.1 48.4z"></path></g><!----></svg>